<?xml version="1.0" encoding="UTF-8"?>
<mxfile host="app.diagrams.net" agent="Mozilla/5.0 (Windows NT 10.0; Win64; x64) AppleWebKit/537.36 (KHTML, like Gecko) Chrome/129.0.0.0 Safari/537.36" version="24.7.17">
  <diagram id="C5RBs43oDa-KdzZeNtuy" name="Page-1">
    <mxGraphModel dx="683" dy="409" grid="1" gridSize="10" guides="1" tooltips="1" connect="1" arrows="1" fold="1" page="1" pageScale="1" pageWidth="827" pageHeight="1169" math="0" shadow="0">
      <root>
        <mxCell id="WIyWlLk6GJQsqaUBKTNV-0" />
        <mxCell id="WIyWlLk6GJQsqaUBKTNV-1" parent="WIyWlLk6GJQsqaUBKTNV-0" />
        <mxCell id="45w7jqHD4FWtg5tpyYvS-9" value="비회원" style="swimlane;whiteSpace=wrap;html=1;" vertex="1" parent="WIyWlLk6GJQsqaUBKTNV-1">
          <mxGeometry x="40" y="40" width="510" height="290" as="geometry" />
        </mxCell>
        <mxCell id="45w7jqHD4FWtg5tpyYvS-3" value="" style="edgeStyle=orthogonalEdgeStyle;rounded=0;orthogonalLoop=1;jettySize=auto;html=1;" edge="1" parent="45w7jqHD4FWtg5tpyYvS-9" source="WIyWlLk6GJQsqaUBKTNV-3" target="45w7jqHD4FWtg5tpyYvS-2">
          <mxGeometry relative="1" as="geometry" />
        </mxCell>
        <mxCell id="45w7jqHD4FWtg5tpyYvS-32" value="" style="edgeStyle=orthogonalEdgeStyle;rounded=0;orthogonalLoop=1;jettySize=auto;html=1;" edge="1" parent="45w7jqHD4FWtg5tpyYvS-9" source="WIyWlLk6GJQsqaUBKTNV-3" target="45w7jqHD4FWtg5tpyYvS-31">
          <mxGeometry relative="1" as="geometry" />
        </mxCell>
        <mxCell id="45w7jqHD4FWtg5tpyYvS-46" value="" style="edgeStyle=orthogonalEdgeStyle;rounded=0;orthogonalLoop=1;jettySize=auto;html=1;" edge="1" parent="45w7jqHD4FWtg5tpyYvS-9" source="WIyWlLk6GJQsqaUBKTNV-3" target="45w7jqHD4FWtg5tpyYvS-44">
          <mxGeometry relative="1" as="geometry" />
        </mxCell>
        <mxCell id="WIyWlLk6GJQsqaUBKTNV-3" value="메인 페이지&lt;div&gt;/&lt;/div&gt;" style="rounded=1;whiteSpace=wrap;html=1;fontSize=12;glass=0;strokeWidth=1;shadow=0;" parent="45w7jqHD4FWtg5tpyYvS-9" vertex="1">
          <mxGeometry x="195" y="50" width="120" height="40" as="geometry" />
        </mxCell>
        <mxCell id="45w7jqHD4FWtg5tpyYvS-29" value="" style="edgeStyle=orthogonalEdgeStyle;rounded=0;orthogonalLoop=1;jettySize=auto;html=1;" edge="1" parent="45w7jqHD4FWtg5tpyYvS-9" source="45w7jqHD4FWtg5tpyYvS-2" target="45w7jqHD4FWtg5tpyYvS-28">
          <mxGeometry relative="1" as="geometry" />
        </mxCell>
        <mxCell id="45w7jqHD4FWtg5tpyYvS-2" value="게시판&lt;div&gt;/reformboard&lt;/div&gt;" style="whiteSpace=wrap;html=1;rounded=1;glass=0;strokeWidth=1;shadow=0;" vertex="1" parent="45w7jqHD4FWtg5tpyYvS-9">
          <mxGeometry x="360" y="50" width="120" height="40" as="geometry" />
        </mxCell>
        <mxCell id="45w7jqHD4FWtg5tpyYvS-57" style="edgeStyle=orthogonalEdgeStyle;rounded=0;orthogonalLoop=1;jettySize=auto;html=1;exitX=0;exitY=0.5;exitDx=0;exitDy=0;entryX=0;entryY=0.75;entryDx=0;entryDy=0;" edge="1" parent="45w7jqHD4FWtg5tpyYvS-9" source="45w7jqHD4FWtg5tpyYvS-22" target="45w7jqHD4FWtg5tpyYvS-44">
          <mxGeometry relative="1" as="geometry" />
        </mxCell>
        <mxCell id="45w7jqHD4FWtg5tpyYvS-58" value="실패" style="edgeLabel;html=1;align=center;verticalAlign=middle;resizable=0;points=[];" vertex="1" connectable="0" parent="45w7jqHD4FWtg5tpyYvS-57">
          <mxGeometry x="0.0653" y="-1" relative="1" as="geometry">
            <mxPoint as="offset" />
          </mxGeometry>
        </mxCell>
        <mxCell id="45w7jqHD4FWtg5tpyYvS-22" value="로그인&lt;div&gt;여부&lt;/div&gt;" style="rhombus;whiteSpace=wrap;html=1;rounded=1;glass=0;strokeWidth=1;shadow=0;" vertex="1" parent="45w7jqHD4FWtg5tpyYvS-9">
          <mxGeometry x="195" y="200" width="120" height="80" as="geometry" />
        </mxCell>
        <mxCell id="45w7jqHD4FWtg5tpyYvS-47" value="" style="edgeStyle=orthogonalEdgeStyle;rounded=0;orthogonalLoop=1;jettySize=auto;html=1;entryX=1;entryY=0.5;entryDx=0;entryDy=0;exitX=0.5;exitY=1;exitDx=0;exitDy=0;" edge="1" parent="45w7jqHD4FWtg5tpyYvS-9" source="45w7jqHD4FWtg5tpyYvS-28" target="45w7jqHD4FWtg5tpyYvS-22">
          <mxGeometry relative="1" as="geometry" />
        </mxCell>
        <mxCell id="45w7jqHD4FWtg5tpyYvS-28" value="게시판 글쓰기&lt;div&gt;/write&lt;/div&gt;" style="whiteSpace=wrap;html=1;rounded=1;glass=0;strokeWidth=1;shadow=0;" vertex="1" parent="45w7jqHD4FWtg5tpyYvS-9">
          <mxGeometry x="360" y="130" width="120" height="40" as="geometry" />
        </mxCell>
        <mxCell id="45w7jqHD4FWtg5tpyYvS-52" style="edgeStyle=orthogonalEdgeStyle;rounded=0;orthogonalLoop=1;jettySize=auto;html=1;exitX=0.5;exitY=1;exitDx=0;exitDy=0;entryX=0.5;entryY=0;entryDx=0;entryDy=0;" edge="1" parent="45w7jqHD4FWtg5tpyYvS-9" source="45w7jqHD4FWtg5tpyYvS-31" target="45w7jqHD4FWtg5tpyYvS-51">
          <mxGeometry relative="1" as="geometry" />
        </mxCell>
        <mxCell id="45w7jqHD4FWtg5tpyYvS-31" value="회원가입&lt;div&gt;/join&lt;/div&gt;" style="rounded=1;whiteSpace=wrap;html=1;fontSize=12;glass=0;strokeWidth=1;shadow=0;" vertex="1" parent="45w7jqHD4FWtg5tpyYvS-9">
          <mxGeometry x="20" y="50" width="120" height="40" as="geometry" />
        </mxCell>
        <mxCell id="45w7jqHD4FWtg5tpyYvS-48" value="" style="edgeStyle=orthogonalEdgeStyle;rounded=0;orthogonalLoop=1;jettySize=auto;html=1;" edge="1" parent="45w7jqHD4FWtg5tpyYvS-9" source="45w7jqHD4FWtg5tpyYvS-44" target="45w7jqHD4FWtg5tpyYvS-22">
          <mxGeometry relative="1" as="geometry" />
        </mxCell>
        <mxCell id="45w7jqHD4FWtg5tpyYvS-44" value="로그인&lt;div&gt;/login&lt;/div&gt;" style="whiteSpace=wrap;html=1;rounded=1;glass=0;strokeWidth=1;shadow=0;" vertex="1" parent="45w7jqHD4FWtg5tpyYvS-9">
          <mxGeometry x="195" y="130" width="120" height="40" as="geometry" />
        </mxCell>
        <mxCell id="45w7jqHD4FWtg5tpyYvS-53" value="" style="edgeStyle=orthogonalEdgeStyle;rounded=0;orthogonalLoop=1;jettySize=auto;html=1;" edge="1" parent="45w7jqHD4FWtg5tpyYvS-9" source="45w7jqHD4FWtg5tpyYvS-51" target="45w7jqHD4FWtg5tpyYvS-44">
          <mxGeometry relative="1" as="geometry" />
        </mxCell>
        <mxCell id="45w7jqHD4FWtg5tpyYvS-54" value="성공" style="edgeLabel;html=1;align=center;verticalAlign=middle;resizable=0;points=[];" vertex="1" connectable="0" parent="45w7jqHD4FWtg5tpyYvS-53">
          <mxGeometry x="0.1852" y="-4" relative="1" as="geometry">
            <mxPoint x="-7" y="-4" as="offset" />
          </mxGeometry>
        </mxCell>
        <mxCell id="45w7jqHD4FWtg5tpyYvS-55" style="edgeStyle=orthogonalEdgeStyle;rounded=0;orthogonalLoop=1;jettySize=auto;html=1;exitX=0;exitY=0.5;exitDx=0;exitDy=0;entryX=0;entryY=0.5;entryDx=0;entryDy=0;" edge="1" parent="45w7jqHD4FWtg5tpyYvS-9" source="45w7jqHD4FWtg5tpyYvS-51" target="45w7jqHD4FWtg5tpyYvS-31">
          <mxGeometry relative="1" as="geometry">
            <Array as="points">
              <mxPoint x="10" y="150" />
              <mxPoint x="10" y="70" />
            </Array>
          </mxGeometry>
        </mxCell>
        <mxCell id="45w7jqHD4FWtg5tpyYvS-56" value="실패" style="edgeLabel;html=1;align=center;verticalAlign=middle;resizable=0;points=[];" vertex="1" connectable="0" parent="45w7jqHD4FWtg5tpyYvS-55">
          <mxGeometry x="0.1959" y="-1" relative="1" as="geometry">
            <mxPoint y="10" as="offset" />
          </mxGeometry>
        </mxCell>
        <mxCell id="45w7jqHD4FWtg5tpyYvS-51" value="회원가입&lt;div&gt;여부&lt;/div&gt;" style="rhombus;whiteSpace=wrap;html=1;rounded=1;glass=0;strokeWidth=1;shadow=0;" vertex="1" parent="45w7jqHD4FWtg5tpyYvS-9">
          <mxGeometry x="20" y="110" width="120" height="80" as="geometry" />
        </mxCell>
        <mxCell id="45w7jqHD4FWtg5tpyYvS-12" value="&amp;nbsp; &amp;nbsp; &amp;nbsp; &amp;nbsp; &amp;nbsp; &amp;nbsp; &amp;nbsp; &amp;nbsp; &amp;nbsp; &amp;nbsp;회원" style="swimlane;whiteSpace=wrap;html=1;" vertex="1" parent="WIyWlLk6GJQsqaUBKTNV-1">
          <mxGeometry x="40" y="400" width="510" height="190" as="geometry">
            <mxRectangle x="40" y="400" width="60" height="30" as="alternateBounds" />
          </mxGeometry>
        </mxCell>
        <mxCell id="45w7jqHD4FWtg5tpyYvS-13" value="메인페이지&lt;div&gt;/&lt;/div&gt;" style="rounded=1;whiteSpace=wrap;html=1;fontSize=12;glass=0;strokeWidth=1;shadow=0;" vertex="1" parent="45w7jqHD4FWtg5tpyYvS-12">
          <mxGeometry x="30" y="40" width="120" height="40" as="geometry" />
        </mxCell>
        <mxCell id="45w7jqHD4FWtg5tpyYvS-5" value="게시판&lt;div&gt;(CRUD)&lt;/div&gt;" style="whiteSpace=wrap;html=1;rounded=1;glass=0;strokeWidth=1;shadow=0;" vertex="1" parent="45w7jqHD4FWtg5tpyYvS-12">
          <mxGeometry x="220" y="120" width="120" height="40" as="geometry" />
        </mxCell>
        <mxCell id="45w7jqHD4FWtg5tpyYvS-7" value="게시판 글쓰기&lt;div&gt;/write&lt;/div&gt;" style="whiteSpace=wrap;html=1;rounded=1;glass=0;strokeWidth=1;shadow=0;" vertex="1" parent="45w7jqHD4FWtg5tpyYvS-12">
          <mxGeometry x="195" y="40" width="120" height="40" as="geometry" />
        </mxCell>
        <mxCell id="45w7jqHD4FWtg5tpyYvS-8" value="" style="edgeStyle=orthogonalEdgeStyle;rounded=0;orthogonalLoop=1;jettySize=auto;html=1;" edge="1" parent="45w7jqHD4FWtg5tpyYvS-12" source="45w7jqHD4FWtg5tpyYvS-5" target="45w7jqHD4FWtg5tpyYvS-7">
          <mxGeometry relative="1" as="geometry" />
        </mxCell>
        <mxCell id="45w7jqHD4FWtg5tpyYvS-34" style="edgeStyle=orthogonalEdgeStyle;rounded=0;orthogonalLoop=1;jettySize=auto;html=1;exitX=0.5;exitY=1;exitDx=0;exitDy=0;" edge="1" parent="WIyWlLk6GJQsqaUBKTNV-1" source="45w7jqHD4FWtg5tpyYvS-22" target="45w7jqHD4FWtg5tpyYvS-13">
          <mxGeometry relative="1" as="geometry">
            <Array as="points">
              <mxPoint x="295" y="370" />
              <mxPoint x="130" y="370" />
            </Array>
          </mxGeometry>
        </mxCell>
        <mxCell id="45w7jqHD4FWtg5tpyYvS-35" value="성공(메인)" style="edgeLabel;html=1;align=center;verticalAlign=middle;resizable=0;points=[];" vertex="1" connectable="0" parent="45w7jqHD4FWtg5tpyYvS-34">
          <mxGeometry x="0.0143" y="2" relative="1" as="geometry">
            <mxPoint as="offset" />
          </mxGeometry>
        </mxCell>
        <mxCell id="45w7jqHD4FWtg5tpyYvS-59" style="edgeStyle=orthogonalEdgeStyle;rounded=0;orthogonalLoop=1;jettySize=auto;html=1;exitX=0.5;exitY=1;exitDx=0;exitDy=0;" edge="1" parent="WIyWlLk6GJQsqaUBKTNV-1" source="45w7jqHD4FWtg5tpyYvS-22" target="45w7jqHD4FWtg5tpyYvS-7">
          <mxGeometry relative="1" as="geometry" />
        </mxCell>
        <mxCell id="45w7jqHD4FWtg5tpyYvS-60" value="성공(게시판)" style="edgeLabel;html=1;align=center;verticalAlign=middle;resizable=0;points=[];" vertex="1" connectable="0" parent="45w7jqHD4FWtg5tpyYvS-59">
          <mxGeometry x="0.1384" y="-1" relative="1" as="geometry">
            <mxPoint as="offset" />
          </mxGeometry>
        </mxCell>
      </root>
    </mxGraphModel>
  </diagram>
</mxfile>
